<svg xmlns="http://www.w3.org/2000/svg" xmlns:xlink="http://www.w3.org/1999/xlink" width="50" zoomAndPan="magnify" viewBox="0 0 37.5 37.499999" height="50" preserveAspectRatio="xMidYMid meet" version="1.0"><defs><clipPath id="1d3972f714"><path d="M 16.648438 7.953125 L 20.351562 7.953125 L 20.351562 16.285156 L 16.648438 16.285156 Z M 16.648438 7.953125 " clip-rule="nonzero"/></clipPath><clipPath id="de47d3159f"><path d="M 29.601562 7.027344 L 33.304688 7.027344 L 33.304688 25.546875 L 29.601562 25.546875 Z M 29.601562 7.027344 " clip-rule="nonzero"/></clipPath><clipPath id="1060004fb6"><path d="M 3.699219 7.027344 L 7.398438 7.027344 L 7.398438 25.546875 L 3.699219 25.546875 Z M 3.699219 7.027344 " clip-rule="nonzero"/></clipPath><clipPath id="a20579aa5d"><path d="M 3.699219 7.023438 L 33.304688 7.023438 L 33.304688 10.804688 L 3.699219 10.804688 Z M 3.699219 7.023438 " clip-rule="nonzero"/></clipPath><clipPath id="ca204a2e47"><path d="M 9.125 17.699219 L 27.882812 17.699219 L 27.882812 22.15625 L 9.125 22.15625 Z M 9.125 17.699219 " clip-rule="nonzero"/></clipPath><clipPath id="9f43bc91ec"><path d="M 9.644531 25.542969 L 28.398438 25.542969 L 28.398438 29.984375 L 9.644531 29.984375 Z M 9.644531 25.542969 " clip-rule="nonzero"/></clipPath><clipPath id="8455a155b2"><path d="M 9 18 L 28 18 L 28 29 L 9 29 Z M 9 18 " clip-rule="nonzero"/></clipPath><clipPath id="7a18465f3f"><path d="M 9.644531 25.484375 L 26.496094 18.835938 L 27.863281 22.296875 L 11.011719 28.945312 Z M 9.644531 25.484375 " clip-rule="nonzero"/></clipPath><clipPath id="bc95f30a90"><path d="M 9.644531 25.484375 L 26.492188 18.835938 L 27.859375 22.300781 L 11.011719 28.945312 Z M 9.644531 25.484375 " clip-rule="nonzero"/></clipPath></defs><g clip-path="url(#1d3972f714)"><path fill="#000000" d="M 20.351562 7.953125 L 20.351562 16.292969 L 16.648438 16.292969 L 16.648438 7.953125 Z M 20.351562 7.953125 " fill-opacity="1" fill-rule="nonzero"/></g><g clip-path="url(#de47d3159f)"><path fill="#000000" d="M 33.304688 7.027344 L 33.304688 25.542969 L 29.601562 25.542969 L 29.601562 7.027344 Z M 33.304688 7.027344 " fill-opacity="1" fill-rule="nonzero"/></g><g clip-path="url(#1060004fb6)"><path fill="#000000" d="M 7.398438 7.027344 L 7.398438 25.542969 L 3.699219 25.542969 L 3.699219 7.027344 Z M 7.398438 7.027344 " fill-opacity="1" fill-rule="nonzero"/></g><g clip-path="url(#a20579aa5d)"><path fill="#000000" d="M 3.699219 7.023438 L 33.304688 7.023438 L 33.304688 10.804688 L 3.699219 10.804688 Z M 3.699219 7.023438 " fill-opacity="1" fill-rule="nonzero"/></g><g clip-path="url(#ca204a2e47)"><path fill="#000000" d="M 9.125 17.699219 L 27.882812 17.699219 L 27.882812 22.15625 L 9.125 22.15625 Z M 9.125 17.699219 " fill-opacity="1" fill-rule="nonzero"/></g><g clip-path="url(#9f43bc91ec)"><path fill="#000000" d="M 9.644531 25.542969 L 28.394531 25.542969 L 28.394531 29.984375 L 9.644531 29.984375 Z M 9.644531 25.542969 " fill-opacity="1" fill-rule="nonzero"/></g><g clip-path="url(#8455a155b2)"><g clip-path="url(#7a18465f3f)"><g clip-path="url(#bc95f30a90)"><path fill="#000000" d="M 9.644531 25.484375 L 26.496094 18.835938 L 27.863281 22.296875 L 11.011719 28.945312 Z M 9.644531 25.484375 " fill-opacity="1" fill-rule="nonzero"/></g></g></g></svg>